<svg width="100" height="110" viewBox="0 0 100 110" fill="none" xmlns="http://www.w3.org/2000/svg">
<path d="M96.0063 49.4404C96.0063 70.2828 101.364 87.179 61.5644 87.179C21.765 87.179 21.7385 67.5549 27.1225 49.4404C33.6282 27.552 35.5417 11.7018 61.5644 11.7018C83.7603 11.7018 96.0063 28.5979 96.0063 49.4404Z" fill="white"/>
<path d="M88.1605 85.2535C95.1124 104.123 101.004 109.129 61.2044 109.129C21.405 109.129 27.3244 103.368 32.7078 85.2536C34.0811 80.6325 29.0202 78.322 55.043 78.322C77.2388 78.322 85.6068 78.322 88.1605 85.2535Z" fill="white"/>
<ellipse cx="49.1815" cy="45.8558" rx="3.85088" ry="4.62106" fill="black"/>
<ellipse cx="49.1815" cy="45.8558" rx="3.85088" ry="4.62106" fill="black"/>
<ellipse cx="70.7464" cy="45.8558" rx="3.85088" ry="4.62106" fill="black"/>
<ellipse cx="59.1938" cy="56.6382" rx="4.62106" ry="3.85088" fill="#212121"/>
<path d="M56.1485 60.3886L59.1485 57.8886L63.1485 60.3886L64.6485 61.3886C64.6485 61.3886 61.7969 66.7773 60.6485 68.8886C59.5 71 59.6485 70.8886 59.6485 70.8886C59.6485 70.8886 59.5 70.5 57.6485 67.8886C55.7969 65.2773 54.1485 61.8886 54.1485 61.8886L56.1485 60.3886Z" fill="#212121"/>
<ellipse cx="32.6227" cy="52.7873" rx="9.6272" ry="2.31053" fill="#FF747C"/>
<ellipse cx="88.0754" cy="52.7873" rx="9.6272" ry="2.31053" fill="#FF747C"/>
<path d="M96.1055 8.52121C97.9192 19.6498 96.8757 22.3843 92.2546 33.5519L71.845 13.6921L88.0187 4.45001C90.7546 2.75972 95.729 6.21068 96.1055 8.52121Z" fill="white"/>
<path d="M89.7971 11.8635C90.9181 19.0801 90.3575 23.1146 89.6174 30.3131L76.5874 17.7191L87.268 11.8389C89.0755 10.762 89.6097 10.8126 89.7971 11.8635Z" fill="#FF747C"/>
<path d="M23.3006 14.4163C23.5152 25.5696 24.9628 28.0643 31.2114 38.193L46.9141 15.4534L30.1754 9.11021C27.3221 7.91343 23.256 12.1006 23.3006 14.4163Z" fill="white"/>
<path d="M29.7974 16.709C30.0003 24.0012 31.2259 27.8819 33.1688 34.8488L43.1873 20.2944L32.1621 16.2672C30.2821 15.5051 29.7904 15.6432 29.7974 16.709Z" fill="#FF747C"/>
<path d="M96.8273 73.7112C96.8779 73.9476 96.9739 74.2835 97.0917 74.6959C97.1304 74.8312 97.1714 74.9748 97.214 75.1257C97.3865 75.7382 97.5851 76.476 97.7568 77.291C98.1001 78.9217 98.3348 80.8585 98.038 82.7156C97.7413 84.5714 96.9143 86.3462 95.1343 87.6581C93.3532 88.9709 90.6119 89.8246 86.4785 89.8246C85.495 89.8246 84.4657 89.8253 83.4002 89.8261C75.9123 89.8313 66.6303 89.8377 58.8096 89.6052C54.3426 89.4723 50.3538 89.2615 47.4488 88.9282C45.996 88.7615 44.8164 88.5644 43.9842 88.3317C43.5678 88.2153 43.2411 88.0907 43.0111 87.958C42.7792 87.8241 42.6562 87.6881 42.6273 87.5536C42.5986 87.4193 42.6547 87.2486 42.8106 87.0399C42.9653 86.8328 43.2115 86.5974 43.5429 86.3372C44.2051 85.8172 45.1986 85.2052 46.4543 84.5297C48.9651 83.1789 52.5167 81.5783 56.5438 79.9571C64.5981 76.7148 74.5486 73.3926 81.8677 71.8244C85.5281 71.0401 88.2617 70.6126 90.3114 70.4513C92.3619 70.2899 93.7242 70.3952 94.644 70.6733C95.561 70.9507 96.0373 71.3995 96.3193 71.9293C96.5552 72.3723 96.6564 72.8728 96.7609 73.3892C96.7825 73.496 96.8042 73.6034 96.8273 73.7112Z" fill="#FF747C" stroke="#606060" stroke-width="0.1"/>
<path d="M46.366 93.9219L46.3652 93.9221L46.3692 93.9308C46.7948 94.8454 46.827 95.5705 46.6047 96.1546C46.382 96.7399 45.9001 97.1933 45.2782 97.5562C44.2285 98.1686 42.7986 98.5136 41.5971 98.8035C41.372 98.8579 41.1548 98.9102 40.9498 98.9621C40.3114 99.1235 39.7585 99.078 39.3135 98.8683C38.8688 98.6587 38.527 98.2827 38.3146 97.774C37.889 96.7548 37.9839 95.2035 38.8181 93.4188C39.5424 91.8695 39.7633 90.4514 39.9462 89.2777C39.9875 89.0128 40.0268 88.7604 40.0696 88.5218C40.1859 87.8718 40.3268 87.3275 40.596 86.9053C40.8615 86.4889 41.254 86.188 41.8819 86.0264C43.0013 86.3841 43.9041 87.4874 44.6372 88.9422C45.3721 90.4006 45.9309 92.2005 46.366 93.9219Z" fill="#FF747C" stroke="#606060" stroke-width="0.1"/>
<path d="M33.0489 96.0912C32.5961 95.9208 32.3796 95.6666 32.3211 95.3418C32.2615 95.0106 32.3638 94.5953 32.5783 94.1002C32.7921 93.6066 33.1135 93.0425 33.4818 92.4165C33.5493 92.3017 33.6183 92.185 33.6885 92.0663C34.0009 91.5379 34.3365 90.9705 34.6605 90.3708C35.559 88.7082 36.4989 87.3501 37.4434 86.4954C38.3821 85.6459 39.3148 85.302 40.2134 85.6314C40.3214 85.83 40.3487 86.0736 40.3095 86.3593C40.2692 86.6527 40.1593 86.9866 40 87.3538C39.7235 87.991 39.3023 88.72 38.8506 89.5017C38.7813 89.6216 38.7113 89.7428 38.641 89.865C38.1134 90.7825 37.5699 91.7598 37.1917 92.7299C36.8136 93.6995 36.5985 94.6669 36.7327 95.5636C36.8032 96.0342 36.8262 96.4049 36.8098 96.6922C36.7934 96.9802 36.7375 97.1803 36.6539 97.3134C36.5717 97.4443 36.4611 97.513 36.3257 97.5364C36.1878 97.5604 36.0214 97.5378 35.8308 97.479C35.449 97.3611 34.9904 97.1046 34.5058 96.8301C34.4904 96.8214 34.475 96.8127 34.4595 96.8039C33.9916 96.5388 33.5031 96.2621 33.0489 96.0912Z" fill="#FF747C" stroke="#606060" stroke-width="0.1"/>
<path d="M26.4338 78.6665L26.4339 78.6663L26.4303 78.6642C22.7084 76.4382 21.6837 74.5635 21.754 73.0017C21.7892 72.2183 22.0998 71.5059 22.4969 70.858C22.7691 70.4138 23.0794 70.0036 23.3683 69.6216C23.502 69.4449 23.6311 69.2743 23.7497 69.1091C24.1074 68.611 24.705 68.4257 25.4761 68.5262C26.2481 68.6268 27.1856 69.0135 28.2051 69.6485C30.2433 70.9181 32.5959 73.1717 34.586 76.0708C36.3043 78.574 38.3027 80.6677 39.9632 82.4073C40.3387 82.8007 40.6969 83.176 41.0307 83.5338C41.937 84.5053 42.6608 85.3457 43.0659 86.0708C43.4652 86.7858 43.5468 87.3734 43.2087 87.8637C42.3842 87.8577 41.3202 87.5663 40.0877 87.0594C38.8433 86.5478 37.4317 85.8184 35.9286 84.9484C32.9226 83.2084 29.5546 80.9079 26.4338 78.6665Z" fill="#FF747C" stroke="#606060" stroke-width="0.1"/>
<path d="M39.24 84.4556C39.712 83.8733 40.4436 83.5654 41.1899 83.6351L43.0361 83.8075L44.5363 83.9475C45.4779 84.0354 46.2897 84.6496 46.6322 85.5312C46.8617 86.1217 46.8577 86.7787 46.6204 87.366C46.1895 88.4323 45.0843 89.0645 43.9468 88.8955L42.5859 88.6932L40.4203 88.0802C39.834 87.9143 39.3378 87.522 39.0411 86.9898L39.0236 86.9585C38.5775 86.1584 38.6632 85.1673 39.24 84.4556Z" fill="#FF747C" stroke="#606060" stroke-width="0.1"/>
<path d="M57.4838 59C53.8715 63.4833 51.5561 63.5026 47 59.8368" stroke="#212121"/>
<path d="M71.4838 58C67.8715 62.4833 65.5561 62.5026 61 58.8368" stroke="#212121"/>
<path d="M15.752 12.088H12.896V7.384H9.368V10.984H0.08V1.768H9.368V5.032H12.896V0.279999H15.752V12.088ZM2.888 8.656H6.584V4.072H2.888V8.656ZM9.056 12.568C11.152 12.568 12.8 12.912 14 13.6C15.2 14.288 15.8 15.24 15.8 16.456C15.8 17.704 15.2 18.672 14 19.36C12.816 20.048 11.168 20.392 9.056 20.392C6.96 20.392 5.32 20.048 4.136 19.36C2.952 18.672 2.36 17.704 2.36 16.456C2.36 15.24 2.952 14.288 4.136 13.6C5.336 12.912 6.976 12.568 9.056 12.568ZM9.056 14.824C7.776 14.824 6.8 14.96 6.128 15.232C5.472 15.504 5.144 15.912 5.144 16.456C5.144 17.016 5.472 17.44 6.128 17.728C6.8 18.016 7.776 18.16 9.056 18.16C10.336 18.16 11.304 18.016 11.96 17.728C12.632 17.44 12.968 17.016 12.968 16.456C12.968 15.912 12.632 15.504 11.96 15.232C11.304 14.96 10.336 14.824 9.056 14.824ZM18.7681 1.744H21.9601L21.6481 13.84H19.0801L18.7681 1.744ZM18.6721 17.56C18.6721 17.08 18.8241 16.688 19.1281 16.384C19.4481 16.064 19.8721 15.904 20.4001 15.904C20.9121 15.904 21.3201 16.064 21.6241 16.384C21.9441 16.688 22.1041 17.08 22.1041 17.56C22.1041 18.024 21.9441 18.408 21.6241 18.712C21.3201 19.016 20.9121 19.168 20.4001 19.168C19.8721 19.168 19.4481 19.016 19.1281 18.712C18.8241 18.408 18.6721 18.024 18.6721 17.56Z" fill="black"/>
</svg>
