<svg width="50" height="50" viewBox="0 0 50 50" fill="none" xmlns="http://www.w3.org/2000/svg">
<circle cx="25" cy="25" r="25" fill="#7AA2CE"/>
<path d="M36.252 22.9501C36.252 29.4633 37.9263 34.7434 25.4889 34.7434C13.0516 34.7434 13.0433 28.6108 14.7258 22.9501C16.7588 16.1099 17.3568 11.1567 25.4889 11.1567C32.4251 11.1567 36.252 16.4368 36.252 22.9501Z" fill="white"/>
<path d="M33.8003 34.1417C35.9727 40.0384 37.8139 41.6028 25.3765 41.6028C12.9392 41.6028 14.789 39.8026 16.4713 34.1417C16.9005 32.6976 15.3189 31.9756 23.451 31.9756C30.3873 31.9756 33.0022 31.9756 33.8003 34.1417Z" fill="white"/>
<ellipse cx="21.6192" cy="21.8298" rx="1.2034" ry="1.44408" fill="black"/>
<ellipse cx="21.6192" cy="21.8298" rx="1.2034" ry="1.44408" fill="black"/>
<ellipse cx="28.3582" cy="21.8298" rx="1.2034" ry="1.44408" fill="black"/>
<ellipse cx="24.748" cy="25.1995" rx="1.44408" ry="1.2034" fill="#212121"/>
<ellipse cx="16.4445" cy="23.996" rx="3.0085" ry="0.72204" fill="#FF747C"/>
<ellipse cx="33.7736" cy="23.996" rx="3.0085" ry="0.72204" fill="#FF747C"/>
<path d="M36.2831 10.1629C36.8499 13.6406 36.5238 14.4951 35.0797 17.985L28.7017 11.7788L33.7559 8.89063C34.6109 8.36241 36.1654 9.44084 36.2831 10.1629Z" fill="white"/>
<path d="M34.3115 11.2072C34.6618 13.4624 34.4866 14.7232 34.2553 16.9728L30.1834 13.0371L33.5211 11.1995C34.086 10.863 34.2529 10.8788 34.3115 11.2072Z" fill="#FF747C"/>
<path d="M13.5314 12.0049C13.5985 15.4903 14.0509 16.2699 16.0036 19.4351L20.9107 12.329L15.6798 10.3468C14.7882 9.97277 13.5175 11.2813 13.5314 12.0049Z" fill="white"/>
<path d="M15.5616 12.7214C15.6251 15.0002 16.008 16.2129 16.6152 18.3901L19.746 13.8418L16.3006 12.5833C15.7131 12.3452 15.5595 12.3883 15.5616 12.7214Z" fill="#FF747C"/>
<path d="M36.4749 30.5421C36.491 30.6172 36.5214 30.7238 36.5584 30.8531C36.5704 30.8952 36.5831 30.9397 36.5962 30.9862C36.6501 31.1773 36.7119 31.407 36.7653 31.6606C36.8722 32.1684 36.9447 32.769 36.8529 33.3433C36.7613 33.9164 36.5065 34.4621 35.959 34.8656C35.4104 35.27 34.5619 35.5359 33.2745 35.5359C32.9671 35.5359 32.6454 35.5362 32.3124 35.5364C29.9724 35.538 27.0724 35.54 24.629 35.4674C23.2333 35.4259 21.9879 35.36 21.0816 35.256C20.6281 35.204 20.2617 35.1426 20.0043 35.0707C19.8753 35.0346 19.7764 34.9966 19.7081 34.9572C19.6379 34.9167 19.6105 34.8807 19.6046 34.8534C19.5988 34.8263 19.6089 34.7835 19.6558 34.7207C19.7016 34.6594 19.7758 34.588 19.8783 34.5075C20.083 34.3469 20.3914 34.1567 20.7832 33.9459C21.5662 33.5247 22.6748 33.025 23.9327 32.5186C26.4487 31.5058 29.5562 30.4684 31.8408 29.9788C32.984 29.7339 33.8366 29.6007 34.475 29.5504C35.1141 29.5001 35.5348 29.5333 35.8162 29.6184C36.0949 29.7027 36.236 29.8375 36.3194 29.9942C36.3905 30.1278 36.421 30.2783 36.4537 30.4395C36.4605 30.4732 36.4675 30.5074 36.4749 30.5421Z" fill="#FF747C" stroke="#606060" stroke-width="0.1"/>
<path d="M20.706 36.8593L20.7052 36.8595L20.7092 36.8681C20.8395 37.1481 20.8471 37.3648 20.7818 37.5363C20.7161 37.709 20.5728 37.8455 20.3821 37.9568C20.0589 38.1454 19.6181 38.2518 19.2424 38.3425C19.1717 38.3596 19.1032 38.3761 19.0383 38.3926C18.845 38.4414 18.6806 38.427 18.5501 38.3655C18.4198 38.3041 18.3186 38.1936 18.255 38.0414C18.1271 37.7352 18.1533 37.2611 18.4118 36.7082C18.6404 36.2191 18.7102 35.7703 18.7674 35.4034C18.7802 35.3211 18.7924 35.2429 18.8055 35.1693C18.8418 34.9667 18.885 34.8024 18.9652 34.6766C19.0417 34.5566 19.1542 34.4683 19.337 34.4193C19.6687 34.5298 19.9423 34.8616 20.1684 35.3101C20.3964 35.7625 20.5702 36.3221 20.706 36.8593Z" fill="#FF747C" stroke="#606060" stroke-width="0.1"/>
<path d="M16.59 37.4964C16.4566 37.4463 16.3998 37.3749 16.3842 37.2883C16.3675 37.1954 16.3958 37.0736 16.4623 36.9201C16.5282 36.768 16.6276 36.5935 16.7428 36.3977C16.7638 36.3619 16.7853 36.3255 16.8072 36.2885C16.9049 36.1234 17.0101 35.9453 17.1117 35.7573C17.3918 35.239 17.6834 34.8186 17.9742 34.5554C18.2588 34.2978 18.5328 34.1988 18.7923 34.2877C18.8168 34.3394 18.8236 34.4038 18.8127 34.4827C18.8008 34.57 18.7678 34.671 18.7185 34.7845C18.633 34.9816 18.5025 35.2075 18.3612 35.452C18.3396 35.4895 18.3176 35.5274 18.2956 35.5658C18.1307 35.8524 17.9597 36.1599 17.8404 36.4657C17.7213 36.7711 17.6518 37.08 17.6951 37.3688C17.7169 37.5146 17.7238 37.6279 17.7188 37.7145C17.7139 37.8016 17.6971 37.8576 17.6753 37.8923C17.6549 37.9247 17.6289 37.9406 17.596 37.9464C17.5605 37.9525 17.5146 37.9471 17.4573 37.9294C17.3424 37.8939 17.2026 37.816 17.0501 37.7296C17.0449 37.7267 17.0397 37.7237 17.0346 37.7208C16.8892 37.6385 16.7345 37.5508 16.59 37.4964Z" fill="#FF747C" stroke="#606060" stroke-width="0.1"/>
<path d="M14.5307 32.0551L14.5308 32.055L14.5272 32.0528C13.367 31.3589 13.0614 30.7826 13.0825 30.3143C13.0932 30.0777 13.187 29.8609 13.3096 29.6609C13.3938 29.5235 13.489 29.3977 13.5788 29.279C13.6208 29.2234 13.6617 29.1694 13.6998 29.1164C13.8016 28.9747 13.9733 28.9179 14.2069 28.9483C14.4413 28.9788 14.7295 29.097 15.046 29.2941C15.6782 29.6879 16.4101 30.3885 17.0298 31.2914C17.5685 32.0761 18.1954 32.7328 18.7144 33.2765C18.8315 33.3992 18.9431 33.5162 19.047 33.6275C19.3305 33.9314 19.5539 34.1912 19.6781 34.4137C19.7961 34.6249 19.8174 34.7883 19.7344 34.9225C19.486 34.9166 19.1651 34.8281 18.7905 34.6741C18.4036 34.515 17.964 34.2879 17.495 34.0164C16.557 33.4735 15.5056 32.7554 14.5307 32.0551Z" fill="#FF747C" stroke="#606060" stroke-width="0.1"/>
<path d="M19.1187 33.6702L19.6956 33.7241L20.1644 33.7678C20.4457 33.7941 20.6882 33.9776 20.7906 34.241C20.8591 34.4174 20.8579 34.6136 20.787 34.789C20.6583 35.1075 20.3282 35.2963 19.9885 35.2458L19.5654 35.1829L18.8907 34.992C18.7163 34.9426 18.5687 34.8259 18.4804 34.6676L18.475 34.6578C18.3424 34.42 18.3678 34.1255 18.5393 33.914C18.6795 33.741 18.8969 33.6495 19.1187 33.6702Z" fill="#FF747C" stroke="#606060" stroke-width="0.1"/>
<path d="M24.2136 25.9377C23.0848 27.3387 22.3612 27.3448 20.9374 26.1992" stroke="#212121"/>
<path d="M28.5886 25.6252C27.4598 27.0262 26.7362 27.0323 25.3124 25.8867" stroke="#212121"/>
</svg>
