<svg width="51" height="51" viewBox="0 0 51 51" fill="none" xmlns="http://www.w3.org/2000/svg">
<circle cx="25.5" cy="25.25" r="25" fill="#606060"/>
<path d="M36.752 23.2001C36.752 29.7133 38.4263 34.9934 25.9889 34.9934C13.5516 34.9934 13.5433 28.8608 15.2258 23.2001C17.2588 16.3599 17.8568 11.4067 25.9889 11.4067C32.9251 11.4067 36.752 16.6868 36.752 23.2001Z" fill="white"/>
<path d="M34.3003 34.3917C36.4727 40.2884 38.3139 41.8528 25.8765 41.8528C13.4392 41.8528 15.289 40.0526 16.9713 34.3917C17.4005 32.9476 15.8189 32.2256 23.951 32.2256C30.8873 32.2256 33.5022 32.2256 34.3003 34.3917Z" fill="white"/>
<ellipse cx="22.1192" cy="22.0798" rx="1.2034" ry="1.44408" fill="black"/>
<ellipse cx="22.1192" cy="22.0798" rx="1.2034" ry="1.44408" fill="black"/>
<ellipse cx="28.8582" cy="22.0798" rx="1.2034" ry="1.44408" fill="black"/>
<ellipse cx="25.248" cy="25.4495" rx="1.44408" ry="1.2034" fill="#212121"/>
<ellipse cx="16.9445" cy="24.246" rx="3.0085" ry="0.72204" fill="#FF747C"/>
<ellipse cx="34.2736" cy="24.246" rx="3.0085" ry="0.72204" fill="#FF747C"/>
<path d="M36.7831 10.4129C37.3499 13.8906 37.0238 14.7451 35.5797 18.235L29.2017 12.0288L34.2559 9.14063C35.1109 8.61241 36.6654 9.69084 36.7831 10.4129Z" fill="white"/>
<path d="M34.8115 11.4572C35.1618 13.7124 34.9866 14.9732 34.7553 17.2228L30.6834 13.2871L34.0211 11.4495C34.586 11.113 34.7529 11.1288 34.8115 11.4572Z" fill="#FF747C"/>
<path d="M14.0314 12.2549C14.0985 15.7403 14.5509 16.5199 16.5036 19.6851L21.4107 12.579L16.1798 10.5968C15.2882 10.2228 14.0175 11.5313 14.0314 12.2549Z" fill="white"/>
<path d="M16.0616 12.9714C16.1251 15.2502 16.508 16.4629 17.1152 18.6401L20.246 14.0918L16.8006 12.8333C16.2131 12.5952 16.0595 12.6383 16.0616 12.9714Z" fill="#FF747C"/>
<path d="M36.9749 30.7921C36.991 30.8672 37.0214 30.9738 37.0584 31.1031C37.0704 31.1452 37.0831 31.1897 37.0962 31.2362C37.1501 31.4273 37.2119 31.657 37.2653 31.9106C37.3722 32.4184 37.4447 33.019 37.3529 33.5933C37.2613 34.1664 37.0065 34.7121 36.459 35.1156C35.9104 35.52 35.0619 35.7859 33.7745 35.7859C33.4671 35.7859 33.1454 35.7862 32.8124 35.7864C30.4724 35.788 27.5724 35.79 25.129 35.7174C23.7333 35.6759 22.4879 35.61 21.5816 35.506C21.1281 35.454 20.7617 35.3926 20.5043 35.3207C20.3753 35.2846 20.2764 35.2466 20.2081 35.2072C20.1379 35.1667 20.1105 35.1307 20.1046 35.1034C20.0988 35.0763 20.1089 35.0335 20.1558 34.9707C20.2016 34.9094 20.2758 34.838 20.3783 34.7575C20.583 34.5969 20.8914 34.4067 21.2832 34.1959C22.0662 33.7747 23.1748 33.275 24.4327 32.7686C26.9487 31.7558 30.0562 30.7184 32.3408 30.2288C33.484 29.9839 34.3366 29.8507 34.975 29.8004C35.6141 29.7501 36.0348 29.7833 36.3162 29.8684C36.5949 29.9527 36.736 30.0875 36.8194 30.2442C36.8905 30.3778 36.921 30.5283 36.9537 30.6895C36.9605 30.7232 36.9675 30.7574 36.9749 30.7921Z" fill="#FF747C" stroke="#606060" stroke-width="0.1"/>
<path d="M21.206 37.1093L21.2052 37.1095L21.2092 37.1181C21.3395 37.3981 21.3471 37.6148 21.2818 37.7863C21.2161 37.959 21.0728 38.0955 20.8821 38.2068C20.5589 38.3954 20.1181 38.5018 19.7424 38.5925C19.6717 38.6096 19.6032 38.6261 19.5383 38.6426C19.345 38.6914 19.1806 38.677 19.0501 38.6155C18.9198 38.5541 18.8186 38.4436 18.755 38.2914C18.6271 37.9852 18.6533 37.5111 18.9118 36.9582C19.1404 36.4691 19.2102 36.0203 19.2674 35.6534C19.2802 35.5711 19.2924 35.4929 19.3055 35.4193C19.3418 35.2167 19.385 35.0524 19.4652 34.9266C19.5417 34.8066 19.6542 34.7183 19.837 34.6693C20.1687 34.7798 20.4423 35.1116 20.6684 35.5601C20.8964 36.0125 21.0702 36.5721 21.206 37.1093Z" fill="#FF747C" stroke="#606060" stroke-width="0.1"/>
<path d="M17.09 37.7464C16.9566 37.6963 16.8998 37.6249 16.8842 37.5383C16.8675 37.4454 16.8958 37.3236 16.9623 37.1701C17.0282 37.018 17.1276 36.8435 17.2428 36.6477C17.2638 36.6119 17.2853 36.5755 17.3072 36.5385C17.4049 36.3734 17.5101 36.1953 17.6117 36.0073C17.8918 35.489 18.1834 35.0686 18.4742 34.8054C18.7588 34.5478 19.0328 34.4488 19.2923 34.5377C19.3168 34.5894 19.3236 34.6538 19.3127 34.7327C19.3008 34.82 19.2678 34.921 19.2185 35.0345C19.133 35.2316 19.0025 35.4575 18.8612 35.702C18.8396 35.7395 18.8176 35.7774 18.7956 35.8158C18.6307 36.1024 18.4597 36.4099 18.3404 36.7157C18.2213 37.0211 18.1518 37.33 18.1951 37.6188C18.2169 37.7646 18.2238 37.8779 18.2188 37.9645C18.2139 38.0516 18.1971 38.1076 18.1753 38.1423C18.1549 38.1747 18.1289 38.1906 18.096 38.1964C18.0605 38.2025 18.0146 38.1971 17.9573 38.1794C17.8424 38.1439 17.7026 38.066 17.5501 37.9796C17.5449 37.9767 17.5397 37.9737 17.5346 37.9708C17.3892 37.8885 17.2345 37.8008 17.09 37.7464Z" fill="#FF747C" stroke="#606060" stroke-width="0.1"/>
<path d="M15.0307 32.3051L15.0308 32.305L15.0272 32.3028C13.867 31.6089 13.5614 31.0326 13.5825 30.5643C13.5932 30.3277 13.687 30.1109 13.8096 29.9109C13.8938 29.7735 13.989 29.6477 14.0788 29.529C14.1208 29.4734 14.1617 29.4194 14.1998 29.3664C14.3016 29.2247 14.4733 29.1679 14.7069 29.1983C14.9413 29.2288 15.2295 29.347 15.546 29.5441C16.1782 29.9379 16.9101 30.6385 17.5298 31.5414C18.0685 32.3261 18.6954 32.9828 19.2144 33.5265C19.3315 33.6492 19.4431 33.7662 19.547 33.8775C19.8305 34.1814 20.0539 34.4412 20.1781 34.6637C20.2961 34.8749 20.3174 35.0383 20.2344 35.1725C19.986 35.1666 19.6651 35.0781 19.2905 34.9241C18.9036 34.765 18.464 34.5379 17.995 34.2664C17.057 33.7235 16.0056 33.0054 15.0307 32.3051Z" fill="#FF747C" stroke="#606060" stroke-width="0.1"/>
<path d="M19.6187 33.9202L20.1956 33.9741L20.6644 34.0178C20.9457 34.0441 21.1882 34.2276 21.2906 34.491C21.3591 34.6674 21.3579 34.8636 21.287 35.039C21.1583 35.3575 20.8282 35.5463 20.4885 35.4958L20.0654 35.4329L19.3907 35.242C19.2163 35.1926 19.0687 35.0759 18.9804 34.9176L18.975 34.9078C18.8424 34.67 18.8678 34.3755 19.0393 34.164C19.1795 33.991 19.3969 33.8995 19.6187 33.9202Z" fill="#FF747C" stroke="#606060" stroke-width="0.1"/>
<path d="M24.7136 26.1877C23.5848 27.5887 22.8612 27.5948 21.4374 26.4492" stroke="#212121"/>
<path d="M29.0886 25.8752C27.9598 27.2762 27.2362 27.2823 25.8124 26.1367" stroke="#212121"/>
</svg>
