<svg width="160" height="160" viewBox="0 0 160 160" fill="none" xmlns="http://www.w3.org/2000/svg">
<g clip-path="url(#clip0_43_48)">
<path d="M80 160C124.183 160 160 124.183 160 80C160 35.8172 124.183 0 80 0C35.8172 0 0 35.8172 0 80C0 124.183 35.8172 160 80 160Z" fill="#7AA2CE"/>
<path d="M126.687 71C126.687 98.062 133.644 120 81.9675 120C30.2917 120 30.2574 94.52 37.248 71C45.695 42.58 48.1794 22 81.9675 22C110.787 22 126.687 43.938 126.687 71Z" fill="white"/>
<path d="M116.5 117.5C125.526 142 133.176 148.5 81.5 148.5C29.8242 148.5 37.5101 141.02 44.4999 117.5C46.283 111.5 39.7119 108.5 73.5 108.5C102.319 108.5 113.184 108.5 116.5 117.5Z" fill="white"/>
<path d="M65.8894 72.3457C68.6508 72.3457 70.8894 69.6594 70.8894 66.3457C70.8894 63.032 68.6508 60.3457 65.8894 60.3457C63.128 60.3457 60.8894 63.032 60.8894 66.3457C60.8894 69.6594 63.128 72.3457 65.8894 72.3457Z" fill="black"/>
<path d="M65.8894 72.3457C68.6508 72.3457 70.8894 69.6594 70.8894 66.3457C70.8894 63.032 68.6508 60.3457 65.8894 60.3457C63.128 60.3457 60.8894 63.032 60.8894 66.3457C60.8894 69.6594 63.128 72.3457 65.8894 72.3457Z" fill="black"/>
<path d="M93.8894 72.3457C96.6508 72.3457 98.8894 69.6594 98.8894 66.3457C98.8894 63.032 96.6508 60.3457 93.8894 60.3457C91.128 60.3457 88.8894 63.032 88.8894 66.3457C88.8894 69.6594 91.128 72.3457 93.8894 72.3457Z" fill="black"/>
<path d="M78.8894 85.3457C82.2031 85.3457 84.8894 83.1071 84.8894 80.3457C84.8894 77.5843 82.2031 75.3457 78.8894 75.3457C75.5757 75.3457 72.8894 77.5843 72.8894 80.3457C72.8894 83.1071 75.5757 85.3457 78.8894 85.3457Z" fill="black"/>
<path d="M44.3894 78.3457C51.293 78.3457 56.8894 77.0026 56.8894 75.3457C56.8894 73.6888 51.293 72.3457 44.3894 72.3457C37.4858 72.3457 31.8894 73.6888 31.8894 75.3457C31.8894 77.0026 37.4858 78.3457 44.3894 78.3457Z" fill="#FF747C"/>
<path d="M116.389 78.3457C123.293 78.3457 128.889 77.0026 128.889 75.3457C128.889 73.6888 123.293 72.3457 116.389 72.3457C109.485 72.3457 103.889 73.6888 103.889 75.3457C103.889 77.0026 109.485 78.3457 116.389 78.3457Z" fill="#FF747C"/>
<path d="M126.816 17.8704C129.171 32.3198 127.816 35.8703 121.816 50.3703L95.3158 24.5843L116.316 12.5843C119.868 10.3896 126.327 14.8704 126.816 17.8704Z" fill="white"/>
<path d="M118.625 22.21C120.08 31.5801 119.352 36.8185 118.392 46.1651L101.473 29.8129L115.341 22.178C117.688 20.7798 118.382 20.8456 118.625 22.21Z" fill="#FF747C"/>
<path d="M32.2855 25.5245C32.5642 40.006 34.4437 43.2452 42.557 56.3964L62.9455 26.8711L41.2118 18.6351C37.5071 17.0812 32.2277 22.5179 32.2855 25.5245Z" fill="white"/>
<path d="M40.721 28.5015C40.9844 37.9697 42.5757 43.0083 45.0985 52.0543L58.1065 33.1567L43.7913 27.9277C41.3503 26.9383 40.712 27.1176 40.721 28.5015Z" fill="#FF747C"/>
<path d="M127.768 102.51C127.833 102.817 127.958 103.252 128.111 103.787C128.161 103.963 128.214 104.15 128.269 104.346C128.493 105.141 128.751 106.1 128.974 107.158C129.42 109.276 129.725 111.793 129.34 114.207C128.954 116.62 127.879 118.928 125.564 120.634C123.248 122.341 119.685 123.45 114.316 123.45C113.039 123.45 111.703 123.451 110.319 123.452C100.597 123.459 88.545 123.467 78.3902 123.165C72.5902 122.993 67.4105 122.719 63.638 122.286C61.7514 122.07 60.2189 121.813 59.1372 121.511C58.5961 121.36 58.1705 121.198 57.8703 121.024C57.5683 120.85 57.4037 120.671 57.3649 120.49C57.3261 120.309 57.4023 120.083 57.6055 119.811C57.8075 119.54 58.1284 119.233 58.559 118.895C59.4198 118.219 60.7107 117.424 62.3413 116.547C65.6021 114.793 70.2141 112.714 75.4431 110.609C85.9013 106.399 98.8219 102.085 108.326 100.049C113.079 99.0305 116.629 98.4754 119.292 98.2658C121.955 98.0562 123.726 98.1928 124.922 98.5547C126.117 98.9159 126.738 99.501 127.107 100.193C127.414 100.77 127.546 101.422 127.681 102.093C127.709 102.231 127.738 102.371 127.768 102.51Z" fill="#FF747C" stroke="#606060" stroke-width="0.1"/>
<path d="M62.2483 128.751L62.2474 128.752L62.2514 128.76C62.8052 129.95 62.8481 130.896 62.5576 131.659C62.2668 132.424 61.6379 133.015 60.8289 133.487C59.4638 134.283 57.6046 134.732 56.0446 135.108C55.7525 135.179 55.4709 135.246 55.205 135.314C54.3735 135.524 53.6519 135.465 53.0705 135.191C52.4892 134.917 52.0431 134.426 51.766 133.762C51.2112 132.434 51.3359 130.415 52.42 128.095C53.3594 126.086 53.646 124.247 53.8834 122.723C53.9371 122.379 53.9882 122.051 54.0437 121.741C54.1949 120.897 54.3782 120.187 54.7294 119.637C55.0768 119.092 55.5909 118.698 56.4121 118.488C57.8734 118.953 59.0492 120.391 60.0024 122.283C60.9574 124.178 61.6832 126.516 62.2483 128.751Z" fill="#FF747C" stroke="#606060" stroke-width="0.1"/>
<path d="M44.9376 131.586C44.3461 131.363 44.0602 131.03 43.9831 130.601C43.9049 130.167 44.0393 129.624 44.318 128.981C44.5961 128.339 45.0138 127.606 45.492 126.793C45.5796 126.644 45.6693 126.492 45.7605 126.338C46.1661 125.652 46.6016 124.915 47.0222 124.137C48.1891 121.978 49.4104 120.213 50.6385 119.101C51.861 117.995 53.0797 117.545 54.2556 117.978C54.4002 118.241 54.4363 118.563 54.3847 118.938C54.3322 119.321 54.1889 119.756 53.9818 120.233C53.6225 121.061 53.075 122.009 52.4887 123.023C52.3987 123.179 52.3078 123.336 52.2165 123.495C51.5315 124.686 50.8263 125.954 50.3357 127.213C49.8451 128.471 49.5669 129.724 49.7406 130.884C49.8322 131.496 49.8623 131.978 49.8409 132.353C49.8194 132.728 49.7466 132.991 49.6362 133.167C49.5271 133.34 49.3798 133.432 49.1999 133.463C49.0175 133.495 48.7989 133.465 48.5504 133.388C48.0528 133.234 47.4558 132.9 46.8271 132.544C46.8073 132.533 46.7874 132.522 46.7675 132.51C46.1596 132.166 45.5261 131.807 44.9376 131.586Z" fill="#FF747C" stroke="#606060" stroke-width="0.1"/>
<path d="M36.345 108.959L36.3415 108.957C31.5077 106.066 30.1708 103.628 30.2625 101.591C30.3084 100.571 30.713 99.6433 31.2293 98.801C31.5831 98.2236 31.9868 97.6899 32.3621 97.1936C32.5356 96.9644 32.7029 96.7431 32.8566 96.5292C33.3253 95.8765 34.1077 95.6355 35.1121 95.7663C36.1174 95.8973 37.3368 96.4006 38.6614 97.2257C41.3099 98.8754 44.3659 101.803 46.9508 105.569C49.1811 108.818 51.7749 111.535 53.9309 113.794C54.4185 114.305 54.8837 114.792 55.3173 115.257C56.4939 116.518 57.435 117.611 57.9619 118.554C58.4831 119.487 58.5912 120.259 58.1421 120.904C57.0676 120.898 55.6811 120.518 54.0763 119.859C52.4597 119.194 50.6262 118.247 48.6744 117.117C44.7706 114.857 40.3972 111.87 36.345 108.959Z" fill="#FF747C" stroke="#606060" stroke-width="0.1"/>
<path d="M55.5145 115.384L57.9117 115.608L59.8595 115.789C61.0877 115.904 62.1467 116.705 62.5935 117.855C62.8927 118.625 62.8875 119.482 62.578 120.248C62.016 121.639 60.5743 122.464 59.0906 122.243L57.3227 121.981L54.5099 121.185C53.7448 120.968 53.0973 120.456 52.7101 119.762L52.6875 119.721C52.1053 118.677 52.2171 117.383 52.9699 116.454C53.5858 115.695 54.5407 115.293 55.5145 115.384Z" fill="#FF747C" stroke="#606060" stroke-width="0.1"/>
</g>
<defs>
<clipPath id="clip0_43_48">
<rect width="160" height="160" fill="white"/>
</clipPath>
</defs>
</svg>
